<?xml version="1.0" encoding="utf-8"?>
<!-- Generator: Adobe Illustrator 24.0.0, SVG Export Plug-In . SVG Version: 6.00 Build 0)  -->
<svg version="1.1" id="Layer_1" xmlns="http://www.w3.org/2000/svg" xmlns:xlink="http://www.w3.org/1999/xlink" x="0px" y="0px"
	 viewBox="0 0 293.83 93.17" style="enable-background:new 0 0 293.83 93.17;" xml:space="preserve">
<g id="_x23_ffffffff">
</g>
<g id="_x23_185f7dff">
	<path d="M62.66,0.67c2.12-0.01,4.25-0.01,6.37-0.02c-0.02,7.61,0.08,15.22-0.05,22.84c-0.05,4.91-2.13,10.15-6.63,12.59
		c-5.09,2.59-11.54,2.58-16.53-0.24c-4.25-2.48-6.3-7.6-6.2-12.36c0.02-7.6,0.01-15.21,0.02-22.81c2.07,0,4.12,0,6.19,0
		c0.02,6.58-0.02,13.16,0.01,19.74c0.11,3.02,0.12,6.31,1.93,8.9c2.44,3.37,7.57,3.68,11.02,1.79c3.12-1.88,3.78-5.8,3.84-9.15
		C62.69,14.85,62.65,7.75,62.66,0.67z"/>
	<path d="M90.28,0.81c5.36-1.59,11.34-0.63,16.11,2.23c-0.02,2.23-0.02,4.45-0.03,6.67c-4.01-2.99-9.34-5.18-14.31-3.44
		c-2.15,0.64-3.56,3.23-2.52,5.31c0.85,2,3.16,2.58,5,3.32c3.95,1.57,8.49,2.41,11.42,5.75c3.76,4.54,2.81,12.62-2.7,15.39
		c-6.2,3.21-13.94,2.19-19.88-1.15c-0.01-2.29-0.01-4.57-0.03-6.86c4.47,3.44,10.68,5.48,16.15,3.39c2.99-1.08,3.37-5.72,0.66-7.33
		c-4.2-2.55-9.36-3.06-13.39-5.95c-3.54-2.55-4.59-7.6-3.12-11.57C84.73,3.66,87.39,1.66,90.28,0.81z"/>
	<path d="M147.8,0.11c8.43,7.74,16.63,15.73,24.91,23.64c0-7.7,0-15.39,0-23.09c2.07,0,4.12,0,6.19,0c0,12.45,0.02,24.9-0.01,37.35
		c-8.44-8.01-16.65-16.27-25.13-24.24c0.01,7.81-0.01,15.62,0.01,23.42c-2,0.02-4,0.02-6,0.02C147.77,24.85,147.71,12.48,147.8,0.11
		z"/>
	<path d="M195.15,0.65c7.47,0,14.92,0.04,22.38-0.02c0.05,1.88,0.05,3.76,0.05,5.64c-5.35,0-10.7-0.01-16.05,0.01
		c0,2.89,0,5.79,0,8.69c4.77,0.02,9.54,0,14.31,0.02c0,1.86,0,3.73,0,5.6c-4.77,0.01-9.54,0-14.31,0c0,3.67-0.01,7.36,0.02,11.03
		c5.34-0.02,10.68,0,16.02-0.02c0.01,1.93,0.02,3.88,0.02,5.81c-7.48,0-14.95,0-22.43,0C195.15,25.15,195.12,12.91,195.15,0.65z"/>
	<path d="M235.71,2.09c5.8-3.36,13.21-2.33,18.91,0.77c0.11,2.27,0.11,4.56,0.1,6.83c-4.13-3.09-9.69-5.31-14.77-3.28
		c-2.88,1.02-3.21,5.37-0.6,6.87c4.26,2.44,9.47,2.94,13.45,5.94c5.35,3.99,4.96,13.65-1.16,16.74c-6.2,3.25-14.02,2.29-19.94-1.14
		c-0.01-2.26-0.01-4.52-0.04-6.78c4.32,3.09,9.81,5.18,15.13,3.74c1.96-0.5,3.77-2.26,3.49-4.42c0.04-1.66-1.12-3.11-2.58-3.79
		c-4.18-2.17-9.11-2.78-12.9-5.71C229.87,14.04,230.19,5.26,235.71,2.09z"/>
	<path d="M272.84,2.21c5.76-3.48,13.29-2.55,18.98,0.63c0.02,2.25,0.02,4.49,0.04,6.75c-4.09-3.09-9.68-5.19-14.68-3.15
		c-2.78,1.08-3.11,5.3-0.56,6.83c4.36,2.54,9.79,2.94,13.79,6.18c3.43,2.71,4.12,7.73,2.79,11.69c-1.25,3.53-4.8,5.58-8.29,6.34
		c-5.35,1.11-11.07,0.12-15.83-2.56c-0.08-2.3-0.08-4.6-0.09-6.89c4.5,3.34,10.64,5.48,16.11,3.37c2.98-1.08,3.43-5.65,0.75-7.3
		c-4.32-2.7-9.76-3.09-13.82-6.29C267.27,13.99,267.49,5.44,272.84,2.21z"/>
	<path d="M0,0.66C6.49,1.04,13.22-0.3,19.5,1.75c6.97,2.24,7.96,13.14,1.6,16.68c5.79,2.4,7.12,10.61,3.15,15.16
		c-2.44,2.91-6.44,3.68-10.05,3.79c-4.73,0.08-9.46,0-14.2,0.02C0,25.16,0,12.91,0,0.66 M6.2,6.28c-0.01,3.22-0.01,6.44,0,9.65
		c3.33-0.16,6.78,0.46,10.03-0.47c3.92-1.14,3.95-7.6,0.05-8.77C12.99,5.85,9.55,6.42,6.2,6.28 M6.2,21.35
		c-0.02,3.48-0.01,6.96,0,10.44c3.81-0.27,7.92,0.75,11.53-0.85c3.58-1.75,3.26-7.7-0.5-9.04C13.68,20.78,9.87,21.59,6.2,21.35z"/>
	<path d="M123.97,0.66c2.07,0,4.12,0,6.19,0c0,12.25,0,24.5,0,36.75c-2.07,0-4.12,0-6.19,0C123.97,25.16,123.97,12.91,123.97,0.66z"
		/>
	<path d="M98.61,57.71c5.78-3.66,13.48-2.64,19.19,0.66c-0.03,2.21-0.03,4.42-0.02,6.64c-4.18-3.06-9.92-5.42-14.95-3.07
		c-2.48,1.18-2.81,4.87-0.57,6.47c4.58,2.91,10.67,3.05,14.62,7.02c2.65,2.5,3.09,6.48,2.41,9.89c-0.79,3.4-3.76,5.94-7.03,6.91
		c-5.72,1.76-12.16,0.81-17.31-2.18c0.02-2.27,0.02-4.53,0-6.8c4.36,3.27,10.27,5.42,15.63,3.5c3.23-0.87,3.88-5.83,0.95-7.46
		c-4.32-2.7-9.82-3.04-13.8-6.38C93.21,69.1,93.51,60.9,98.61,57.71z"/>
	<path d="M24.56,56.16c2.07,0,4.12,0,6.18,0c0.02,12.11,0.01,24.24,0.01,36.36c-2.07,0-4.12,0-6.19,0
		C24.56,80.4,24.56,68.28,24.56,56.16z"/>
	<path d="M48.34,55.31c8.23,7.86,16.44,15.75,24.75,23.53c0.03-7.63,0.01-15.25,0.02-22.87c2.06-0.01,4.12-0.01,6.19-0.01
		c0.02,12.4-0.02,24.79,0.02,37.19c-8.39-7.96-16.62-16.09-24.95-24.12c-0.04,7.82,0,15.65-0.02,23.48c-2,0-4,0-6-0.01
		C48.34,80.11,48.36,67.71,48.34,55.31z"/>
	<path d="M135.38,56.16c2.07,0,4.12,0,6.19,0c0,12.12,0,24.24,0,36.36c-2.07,0-4.12,0-6.19,0C135.38,80.4,135.37,68.29,135.38,56.16
		z"/>
	<path d="M159.37,56.16c4.98,0,9.97,0,14.96-0.02c5.67-0.07,11.53,2.83,14.3,7.9c2.98,5.32,3.17,11.94,1.32,17.67
		c-1.98,6.03-7.88,10.29-14.16,10.69c-5.47,0.28-10.95,0.04-16.42,0.12C159.36,80.4,159.35,68.28,159.37,56.16 M165.74,61.77
		c0,8.38,0,16.76,0,25.13c4.43-0.16,9.21,0.68,13.33-1.39c3.96-2.04,5.78-6.68,5.66-10.95c0.16-4.32-1.36-9.16-5.34-11.37
		C175.23,60.86,170.28,62.07,165.74,61.77z"/>
	<path d="M203.84,56.16c7.41-0.01,14.82,0,22.24,0c0,1.87-0.01,3.74-0.01,5.62c-5.35-0.02-10.7-0.01-16.04,0c0,2.83,0,5.66,0,8.49
		c4.77,0.01,9.54,0.01,14.31,0.01c0,1.8,0,3.61,0,5.42c-4.77,0-9.55-0.01-14.31,0.01c0,3.74,0,7.47,0,11.2
		c5.35,0.02,10.7,0,16.05,0.01c0,1.87,0,3.74,0,5.61c-7.42,0-14.83,0.01-22.24,0C203.84,80.4,203.84,68.29,203.84,56.16z"/>
	<path d="M244.27,56.16c5.02,0.05,10.04-0.05,15.05,0.03c4.25,0.11,8.76,2.56,9.99,6.86c1.1,3.74,0.84,8.17-1.56,11.36
		c-1.48,1.9-3.85,2.63-6.08,3.24c4.35,4.91,8.66,9.86,12.94,14.84c-2.44,0.05-4.88,0.05-7.32,0.01c-4.15-4.93-8.37-9.79-12.54-14.68
		c-1.38,0.01-2.75,0.01-4.11,0.01c-0.02,4.9-0.01,9.79-0.01,14.69c-2.13,0.01-4.25,0.01-6.38,0.01
		C244.26,80.4,244.25,68.28,244.27,56.16 M250.65,61.59c-0.02,3.6-0.01,7.21,0,10.81c3.3-0.19,6.75,0.52,9.96-0.51
		c3.95-1.59,4.04-7.93,0.15-9.62C257.54,61.04,254,61.76,250.65,61.59z"/>
</g>
</svg>
