<?xml version="1.0" encoding="utf-8"?>
<!-- Generator: Adobe Illustrator 24.0.0, SVG Export Plug-In . SVG Version: 6.00 Build 0)  -->
<svg version="1.1" id="Layer_1" xmlns="http://www.w3.org/2000/svg" xmlns:xlink="http://www.w3.org/1999/xlink" x="0px" y="0px"
	 viewBox="0 0 64.76 20" style="enable-background:new 0 0 64.76 20;" xml:space="preserve">
<path d="M5.01,8.96c0.26-0.02,0.48-0.08,0.65-0.17c0.17-0.09,0.31-0.2,0.4-0.34c0.1-0.14,0.16-0.28,0.2-0.44
	C6.3,7.86,6.31,7.71,6.3,7.55C6.27,7.28,6.15,7.06,5.93,6.9C5.71,6.74,5.44,6.68,5.14,6.71L3.08,6.89c-0.16,0.01-0.29,0.14-0.31,0.3
	l-0.2,1.57c-0.03,0.22,0.15,0.4,0.37,0.39C2.94,9.15,5.01,8.96,5.01,8.96z M4.56,12.81c0.25-0.02,0.47-0.08,0.66-0.18
	c0.18-0.1,0.34-0.21,0.46-0.35c0.12-0.14,0.21-0.29,0.26-0.46c0.06-0.17,0.07-0.35,0.06-0.53c-0.03-0.3-0.15-0.54-0.37-0.72
	c-0.22-0.18-0.51-0.25-0.86-0.22l-2.15,0.2c-0.16,0.01-0.29,0.14-0.31,0.3l-0.23,1.77C2.05,12.8,2.18,12.98,2.37,13
	c0.02,0,0.05,0,0.07,0C2.45,13,4.56,12.81,4.56,12.81z M0.37,14.14l1.04-8.2c0.02-0.16,0.15-0.28,0.31-0.3l3.7-0.34
	C5.78,5.28,6.1,5.3,6.4,5.39c0.29,0.08,0.55,0.21,0.77,0.37c0.22,0.16,0.39,0.37,0.52,0.6C7.82,6.6,7.9,6.86,7.92,7.15
	c0.03,0.3,0,0.58-0.09,0.86C7.75,8.28,7.63,8.53,7.46,8.75C7.3,8.97,7.1,9.16,6.87,9.32C6.63,9.48,6.39,9.58,6.13,9.63
	c0.2,0.04,0.38,0.11,0.55,0.21c0.17,0.1,0.31,0.23,0.44,0.38c0.12,0.15,0.22,0.31,0.3,0.5c0.07,0.19,0.12,0.38,0.14,0.57
	c0.03,0.31,0,0.63-0.08,0.95C7.38,12.55,7.22,12.85,7,13.12c-0.22,0.27-0.51,0.5-0.88,0.69c-0.36,0.19-0.81,0.31-1.35,0.35
	l-4.04,0.37C0.52,14.55,0.34,14.36,0.37,14.14L0.37,14.14z M16.58,13.24c-0.59,0.05-1.12,0.03-1.58-0.07
	c-0.46-0.1-0.86-0.27-1.19-0.51c-0.33-0.23-0.59-0.53-0.79-0.88c-0.19-0.35-0.31-0.75-0.35-1.19c-0.01-0.11-0.01-0.22-0.01-0.34
	c0-0.12,0.01-0.22,0.02-0.29l0.65-5.1c0.02-0.16,0.15-0.28,0.31-0.3l0.86-0.08c0.22-0.02,0.4,0.17,0.37,0.38l-0.63,4.92
	c0,0.04-0.01,0.11-0.01,0.2c-0.01,0.09,0,0.18,0,0.28c0.02,0.25,0.09,0.48,0.2,0.7c0.11,0.21,0.26,0.39,0.45,0.54
	c0.19,0.15,0.42,0.25,0.68,0.33c0.27,0.07,0.56,0.09,0.9,0.06c0.72-0.07,1.25-0.32,1.59-0.77c0.34-0.45,0.55-1.03,0.65-1.74
	l0.64-5.06c0.02-0.16,0.15-0.28,0.31-0.3l0.86-0.08c0.22-0.02,0.4,0.17,0.37,0.38l-0.63,4.95c-0.07,0.54-0.19,1.05-0.34,1.51
	c-0.16,0.46-0.38,0.87-0.67,1.21c-0.29,0.35-0.65,0.63-1.08,0.84C17.72,13.05,17.19,13.19,16.58,13.24 M28.74,12.14
	c-0.41,0.04-0.81,0.03-1.2-0.01c-0.39-0.04-0.76-0.12-1.1-0.24c-0.34-0.11-0.65-0.26-0.92-0.43c-0.18-0.11-0.34-0.24-0.49-0.37
	c-0.12-0.12-0.14-0.31-0.04-0.45L25.46,10c0.12-0.17,0.36-0.18,0.51-0.05c0.29,0.26,0.64,0.46,1.05,0.61
	c0.54,0.2,1.11,0.27,1.72,0.21c0.28-0.03,0.51-0.09,0.71-0.18c0.19-0.1,0.35-0.21,0.46-0.35c0.11-0.13,0.2-0.28,0.24-0.43
	c0.05-0.15,0.07-0.3,0.05-0.44c-0.02-0.24-0.15-0.42-0.37-0.57C29.6,8.66,29.33,8.54,29,8.43c-0.33-0.11-0.68-0.21-1.07-0.31
	c-0.39-0.1-0.75-0.23-1.08-0.4C26.52,7.56,26.24,7.35,26,7.09c-0.24-0.26-0.38-0.6-0.42-1.02c-0.03-0.35,0.01-0.69,0.14-1.03
	c0.12-0.34,0.32-0.65,0.58-0.93c0.27-0.28,0.59-0.51,0.98-0.7c0.39-0.19,0.84-0.31,1.33-0.35c0.68-0.06,1.33,0,1.94,0.2
	c0.5,0.16,0.93,0.39,1.29,0.69C31.98,4.06,32,4.27,31.9,4.41l-0.47,0.64c-0.12,0.16-0.34,0.18-0.5,0.06
	c-0.29-0.23-0.62-0.4-0.98-0.51c-0.49-0.15-0.96-0.2-1.42-0.15c-0.21,0.02-0.4,0.07-0.57,0.14c-0.17,0.08-0.31,0.17-0.43,0.28
	c-0.12,0.11-0.21,0.24-0.27,0.38c-0.06,0.14-0.09,0.29-0.07,0.43c0.02,0.22,0.14,0.39,0.37,0.53c0.23,0.13,0.51,0.25,0.83,0.35
	c0.33,0.1,0.68,0.21,1.07,0.31c0.39,0.11,0.75,0.24,1.08,0.41c0.33,0.17,0.62,0.38,0.86,0.65c0.24,0.26,0.38,0.6,0.42,1.02
	c0.04,0.38-0.01,0.76-0.12,1.12c-0.12,0.36-0.3,0.69-0.56,0.98s-0.59,0.54-0.99,0.73C29.73,11.97,29.27,12.09,28.74,12.14
	 M38.17,10.7l0.86-6.66c0.03-0.22-0.15-0.4-0.37-0.38l-1.8,0.16c-0.22,0.02-0.4-0.16-0.37-0.38l0.08-0.69
	c0.02-0.16,0.15-0.29,0.31-0.3L43,1.89c0.19-0.02,0.35,0.12,0.37,0.31c0,0.02,0,0.05,0,0.07l-0.08,0.69
	c-0.02,0.16-0.15,0.29-0.31,0.3l-2.09,0.19c-0.16,0.01-0.29,0.14-0.31,0.3l-0.89,6.96c-0.02,0.16-0.15,0.28-0.31,0.3l-0.83,0.08
	C38.33,11.11,38.14,10.92,38.17,10.7 M46.97,9.9l1.04-8.2c0.02-0.16,0.15-0.28,0.31-0.3l0.83-0.08c0.22-0.02,0.4,0.17,0.37,0.38
	l-0.84,6.66c-0.03,0.22,0.15,0.4,0.37,0.38l3-0.27c0.22-0.02,0.4,0.17,0.37,0.38l-0.09,0.69c-0.02,0.16-0.15,0.28-0.31,0.3
	l-4.68,0.43C47.12,10.31,46.94,10.12,46.97,9.9 M57.13,8.98l1.04-8.2c0.02-0.16,0.15-0.28,0.31-0.3L63.76,0
	c0.22-0.02,0.4,0.16,0.37,0.38l-0.08,0.69c-0.02,0.16-0.15,0.29-0.31,0.3l-3.9,0.35c-0.16,0.01-0.29,0.14-0.31,0.3l-0.2,1.57
	C59.3,3.81,59.48,4,59.7,3.98l3.51-0.32c0.22-0.02,0.4,0.17,0.37,0.38l-0.09,0.69c-0.02,0.16-0.15,0.28-0.31,0.3l-3.81,0.35
	c-0.16,0.01-0.29,0.14-0.31,0.3l-0.23,1.77c-0.03,0.22,0.15,0.4,0.37,0.38l3.6-0.33c0.22-0.02,0.4,0.17,0.37,0.38l-0.09,0.69
	c-0.02,0.16-0.15,0.28-0.31,0.3L57.5,9.36C57.28,9.38,57.1,9.2,57.13,8.98 M0.06,19.68L0,18.97c-0.02-0.19,0.13-0.37,0.32-0.38
	l46.47-4.06c0.1-0.01,0.2,0.02,0.27,0.09l3.41,3.14c0.14,0.13,0.37,0.12,0.5-0.02c0,0,0,0,0,0l3.45-3.78
	c0.06-0.07,0.14-0.11,0.23-0.11l9.65-0.84c0.2-0.02,0.37,0.13,0.38,0.32l0.06,0.7c0.02,0.19-0.13,0.37-0.32,0.38l-9.1,0.8
	c-0.09,0.01-0.17,0.05-0.23,0.11l-4.04,4.42c-0.13,0.14-0.36,0.15-0.5,0.02c0,0,0,0,0,0l-4-3.68c-0.07-0.07-0.17-0.1-0.27-0.09
	L0.45,20C0.25,20.02,0.08,19.87,0.06,19.68"/>
</svg>
