<?xml version="1.0" encoding="utf-8"?>
<!-- Generator: Adobe Illustrator 24.0.0, SVG Export Plug-In . SVG Version: 6.00 Build 0)  -->
<svg version="1.1" id="layer" xmlns="http://www.w3.org/2000/svg" xmlns:xlink="http://www.w3.org/1999/xlink" x="0px" y="0px"
	 viewBox="0 0 128.76 20" style="enable-background:new 0 0 128.76 20;" xml:space="preserve">
<path d="M10.84,3.3h0.21V0.45H0v0.19c1.27,1.03,1.46,1.33,1.46,2.47v13.8c0,1.14-0.17,1.44-1.46,2.47v0.19h5.75v-0.19
	c-1.29-0.97-1.52-1.33-1.52-2.42v-6.85h1.24c1.63,0,1.91,0.11,3.3,1.89h0.19V7.51H8.78C7.38,9.27,7.1,9.4,5.47,9.4H4.23V1.16h1.89
	C6.89,1.16,7.53,1.42,10.84,3.3L10.84,3.3z M15.21,11.42h-3.84l1.82-5.56c0.09,0.19,0.17,0.43,0.26,0.69L15.21,11.42z M18.22,13.05
	l-3.33-9.16h-3v0.17c0.43,0.39,0.69,0.69,0.92,1.03l-2.49,7.58c-0.47,1.35-0.75,1.78-1.89,2.85v0.19h3.5v-0.19
	c-0.97-0.58-1.27-0.97-1.27-1.52c0-0.28,0.09-0.64,0.28-1.27l0.21-0.67h4.27l0.39,1.07c0.24,0.69,0.28,0.97,0.28,1.22
	c0,0.41-0.28,0.73-1.01,1.14v0.19h4.87v-0.17C18.84,14.57,18.65,14.25,18.22,13.05L18.22,13.05z M25.56,3.3h0.21V0.54
	C24.7,0.34,23.5,0.19,22.4,0.19c-3.2,0-4.79,2.15-4.79,4.42c0,2.64,1.72,4.21,3.88,6.03c2.36,1.97,3.76,3.18,3.76,5.45
	c0,1.89-1.24,3.03-2.9,3.03c-1.46,0-2.6-0.58-5.64-2.96h-0.26l1.12,3.11c1.33,0.39,2.73,0.58,4.12,0.58c3.65,0,5.77-2.21,5.77-5.3
	c0-2.83-1.65-4.29-4.01-6.2c-2.17-1.76-3.65-3.18-3.65-5.21c0-1.33,0.88-2.23,2.23-2.23C22.96,0.9,23.61,1.27,25.56,3.3L25.56,3.3z
	 M39.61,3.3h0.21V0.45H26.78V3.3H27c3.07-1.95,3.69-2.21,4.42-2.21h0.49v15.86c0,1.09-0.21,1.46-1.52,2.42v0.19h5.82v-0.19
	c-1.29-0.97-1.52-1.33-1.52-2.42V1.09h0.49C35.9,1.12,36.52,1.37,39.61,3.3L39.61,3.3z M56.24,2.79h0.21V0.34
	C55.17,0.15,53.5,0,52,0C45.21,0,41.2,3.78,41.2,10.04c0,6.16,3.84,9.96,10.54,9.96c1.74,0,3.3-0.26,4.55-0.6l0.49-2.73h-0.21
	c-2.51,2.12-3.63,2.62-5.43,2.62c-5,0-6.67-3.78-6.67-9.38c0-5.69,1.67-9.16,6.42-9.16C52.36,0.75,53.43,1.12,56.24,2.79L56.24,2.79
	z M55.6,9.94c0,3.15-0.28,5.24-2.55,5.24c-2.3,0-2.55-2.08-2.55-5.24c0-3.15,0.26-5.24,2.55-5.24C55.34,4.68,55.6,6.76,55.6,9.94z
	 M58.3,9.94c0-3.33-1.97-5.84-5.26-5.84c-3.28,0-5.26,2.53-5.26,5.84c0,3.3,1.97,5.84,5.26,5.84C56.33,15.75,58.3,13.22,58.3,9.94z
	 M70.04,19.55l5.69,0.04V19.4c-1.27-1.03-1.46-1.33-1.46-2.47V3.13c0-1.14,0.17-1.44,1.46-2.45V0.49l-4.01-0.02l-4.46,14.14
	L62.68,0.49h-4.06v0.19c0.77,0.67,1.24,1.09,1.59,1.55V15.6c0,1.55-0.19,2.17-1.63,3.82v0.19h4.55v-0.19
	c-1.91-1.59-2.19-2.21-2.19-3.82V3.69c0.02,0.09,0.06,0.17,0.09,0.28l5.13,15.79h0.21L71.5,3.5v13.43c0,1.14-0.17,1.44-1.46,2.45
	C70.04,19.36,70.04,19.55,70.04,19.55z M86.46,6.31c0,3.58-0.84,5.09-3.58,5.09h-1.57V1.16h1.12C85.45,1.16,86.46,2.45,86.46,6.31z
	 M89.44,6.18c0-4.31-3-5.73-7.1-5.73h-5.26v0.19c1.27,1.03,1.46,1.33,1.46,2.47v13.8c0,1.14-0.17,1.44-1.46,2.47v0.19h5.73v-0.19
	c-1.29-0.97-1.52-1.33-1.52-2.42v-4.87h1.5C86.39,12.1,89.44,10.56,89.44,6.18z M96.44,12.6h-5.41l2.66-9.64
	c0.06,0.17,0.11,0.34,0.17,0.54L96.44,12.6L96.44,12.6z M128.76,0.64V0.45h-4.31v0.19c1.16,1.03,1.52,1.52,1.52,2.27
	c0,0.41-0.09,0.71-0.41,1.46l-2.49,5.79l-3.24-7.19c-0.26-0.56-0.34-0.86-0.34-1.14c0-0.52,0.28-0.79,1.07-1.2V0.45h-9.57v0.19
	c2.15,1.59,2.42,2.21,2.42,3.95V15.6l-7.98-15.13h-3.97v0.19c0.84,0.71,1.31,1.16,1.72,1.7v13.26c0,1.44-0.15,2.06-1.31,3.78
	c-0.88-1.09-1.07-1.63-1.52-3.2L95.84,0.47h-3.88v0.19c0.6,0.54,0.99,0.9,1.29,1.33l-3.78,13.5c-0.54,1.95-0.97,2.55-2.4,3.91v0.19
	h4.64V19.4c-1.33-1.01-1.74-1.52-1.74-2.38c0-0.34,0.09-0.84,0.28-1.52l0.6-2.17h5.82l0.82,2.85c0.26,0.9,0.34,1.27,0.34,1.63
	c0,0.49-0.21,0.84-1.18,1.59v0.19h9.7V19.4c-2.15-1.59-2.42-2.21-2.42-3.78V3.54c0.02,0.02,0.02,0.06,0.04,0.09l8.43,15.97h1.76v-15
	c0-1.59,0.15-2.21,1.27-3.93c0.71,0.88,1.18,1.61,1.76,2.92l3.45,7.62V17c0,1.07-0.21,1.46-1.52,2.42v0.19h5.82v-0.19
	c-1.29-0.97-1.52-1.33-1.52-2.42v-5.88l2.88-6.67C126.85,3,127.32,2.34,128.76,0.64L128.76,0.64z"/>
</svg>
