<?xml version="1.0" encoding="utf-8"?>
<!-- Generator: Adobe Illustrator 24.0.0, SVG Export Plug-In . SVG Version: 6.00 Build 0)  -->
<svg version="1.1" id="Layer_1" xmlns="http://www.w3.org/2000/svg" xmlns:xlink="http://www.w3.org/1999/xlink" x="0px" y="0px"
	 viewBox="0 0 31.34 20" style="enable-background:new 0 0 31.34 20;" xml:space="preserve">
<g>
	<path d="M18.25,3.94c-0.36,0-0.67,0.1-0.94,0.27c-0.3-1.05-1.22-1.64-2.6-1.64h-2.19v0.76h2.25c1.15,0,1.83,0.62,1.83,1.71
		s-0.68,1.71-1.83,1.71h-0.02l0.13-0.19c0.28-0.42,0.53-0.83,0.53-1.22c0-0.8-0.51-1.41-1.5-1.41c-0.86,0-1.51,0.66-1.51,1.44h0.82
		c0-0.39,0.25-0.67,0.69-0.67c0.47,0,0.68,0.27,0.68,0.67c0,0.3-0.19,0.61-0.41,0.91l-0.33,0.47h-1.34v0.76h0.82l-1.44,2.1h3.44
		V8.86h-2.03l0.91-1.34h0.48c0.08,0,0.16,0,0.24-0.01l2.4,3.14h1.04l-0.79-1.03l1.51-2.2c0.39-0.55,0.84-1.14,0.84-1.82
		C19.93,4.69,19.24,3.94,18.25,3.94z M17.08,8.96l-1.24-1.61c0.45-0.15,0.82-0.39,1.09-0.72c0.3,0.38,0.76,0.61,1.33,0.61
		c0.01,0,0.04,0,0.04,0L17.08,8.96z M18.25,6.49c-0.52,0-0.86-0.39-0.86-0.9c0-0.04,0-0.08,0.01-0.12c0-0.01,0-0.01,0-0.02
		c0.06-0.43,0.38-0.75,0.85-0.75c0.52,0,0.86,0.39,0.86,0.9C19.11,6.1,18.77,6.49,18.25,6.49z"/>
	<path d="M15.67,0c-3.55,0-6.44,2.89-6.44,6.44s2.89,6.44,6.44,6.44s6.44-2.89,6.44-6.44C22.11,2.88,19.22,0,15.67,0z M15.67,12.11
		c-3.13,0-5.68-2.54-5.68-5.68s2.54-5.68,5.68-5.68s5.68,2.54,5.68,5.68C21.34,9.56,18.8,12.11,15.67,12.11z"/>
</g>
<g>
	<path d="M2.14,18.1c0.2-0.19,0.33-0.45,0.33-0.75s-0.13-0.56-0.33-0.75c-0.18-0.17-0.42-0.27-0.8-0.27H0V20h0.71v-1.62h0.25
		L2.27,20h0.87l-1.37-1.68C1.92,18.27,2.04,18.2,2.14,18.1z M1.65,17.64C1.59,17.7,1.5,17.75,1.3,17.75H0.71v-0.79H1.3
		c0.21,0,0.3,0.05,0.36,0.12c0.06,0.07,0.1,0.18,0.1,0.28C1.76,17.46,1.71,17.57,1.65,17.64z"/>
	<polygon points="4.34,18.35 5.46,18.35 5.46,17.72 4.34,17.72 4.34,16.96 5.83,16.96 5.83,16.33 3.63,16.33 3.63,20 5.88,20 
		5.88,19.37 4.34,19.37 	"/>
	<polygon points="6.81,20 7.52,20 7.52,18.35 8.64,18.35 8.64,17.72 7.52,17.72 7.52,16.96 9.01,16.96 9.01,16.33 6.81,16.33 	"/>
	<rect x="9.75" y="16.33" width="0.71" height="3.67"/>
	<polygon points="14.02,18.72 11.97,16.33 11.47,16.33 11.47,20 12.18,20 12.18,17.61 14.23,20 14.72,20 14.72,16.33 14.02,16.33 	
		"/>
	<polygon points="16.51,18.35 17.64,18.35 17.64,17.72 16.51,17.72 16.51,16.96 18,16.96 18,16.33 15.8,16.33 15.8,20 18.06,20 
		18.06,19.37 16.51,19.37 	"/>
	<path d="M21.12,18.1c0.2-0.19,0.33-0.45,0.33-0.75s-0.13-0.56-0.33-0.75c-0.18-0.17-0.42-0.27-0.8-0.27h-1.34V20h0.71v-1.62h0.25
		l1.3,1.62h0.88l-1.37-1.68C20.9,18.27,21.02,18.2,21.12,18.1z M20.63,17.64c-0.06,0.07-0.15,0.11-0.36,0.11h-0.59v-0.79h0.59
		c0.21,0,0.3,0.05,0.36,0.12c0.06,0.07,0.1,0.18,0.1,0.28C20.74,17.46,20.7,17.57,20.63,17.64z"/>
	<polygon points="23.6,17.62 22.79,16.33 21.98,16.33 23.24,18.34 23.24,20 23.95,20 23.95,18.34 25.2,16.33 24.4,16.33 	"/>
	<path d="M27.63,18.43c0.25-0.33,0.4-0.62,0.4-1.07l0,0c0-0.67-0.57-1.16-1.2-1.16h-0.02c-0.63,0-1.16,0.47-1.2,1.14h0.71
		c0-0.26,0.23-0.5,0.5-0.5c0.28,0,0.5,0.24,0.5,0.5c0,0.19-0.02,0.39-0.29,0.73L25.46,20h2.71v-0.64h-1.3L27.63,18.43z"/>
	<path d="M30,16.2c-0.71,0-1.3,0.59-1.3,1.31c0,0.75,0.59,1.29,1.28,1.29h0.05L29.33,20h0.78l0.87-1.48
		c0.19-0.33,0.36-0.66,0.36-1.03C31.34,16.7,30.68,16.2,30,16.2z M30.02,18.17c-0.36,0-0.66-0.3-0.66-0.66
		c0-0.36,0.3-0.66,0.66-0.66c0.36,0,0.66,0.3,0.66,0.66C30.68,17.87,30.38,18.17,30.02,18.17z"/>
</g>
</svg>
