<svg xmlns="http://www.w3.org/2000/svg" viewBox="0 0 20 6.952">
  <path fill="#0571c1" d="M1.714 1.714h.699l-.35-.889-.349.889z"/>
  <path d="M10.381.952a.635.635 0 00-.254-.031h-.635v.508h.635a.616.616 0 00.254-.032.248.248 0 00.1-.222.178.178 0 00-.1-.223z" fill="#228fe0"/>
  <path d="M17.175 0v.381L16.984 0h-1.492v.381L15.3 0h-2.03a1.934 1.934 0 00-.889.19V0h-1.429v.19a.913.913 0 00-.6-.19H5.238l-.349.794L4.54 0H2.921v.381L2.73 0H1.365L.73 1.492 0 3.143h1.619l.191-.508h.444l.19.508h1.842v-.381l.158.381h.921l.159-.381v.381h4.413v-.826H10c.063 0 .063 0 .063.1v.7h2.286v-.19a1.907 1.907 0 00.857.19h.953l.19-.508h.445l.19.508h1.841v-.482l.286.476H18.6V0zM6.444 2.667h-.539V.921l-.762 1.746h-.476L3.905.921v1.746h-1.08L2.6 2.19H1.524l-.191.51H.73L1.683.444h.793l.889 2.127V.444h.857l.7 1.524.634-1.524h.888zM8.6.921H7.365v.412h1.206v.445H7.365v.444H8.6V2.7H6.825V.444H8.6zm2.381.92a.789.789 0 01.1.413V2.7h-.541v-.287a.753.753 0 00-.1-.445c-.1-.095-.19-.095-.381-.095h-.567V2.7h-.54V.444h1.207a1.211 1.211 0 01.635.1.542.542 0 01.254.508.634.634 0 01-.381.6.608.608 0 01.317.189zm.953.826H11.4V.413h.54zm6.253 0h-.761L16.413.984v1.683h-1.08l-.19-.477h-1.111l-.191.508h-.6a1.107 1.107 0 01-.762-.254 1.116 1.116 0 01-.286-.857A1.3 1.3 0 0112.476.7a1 1 0 01.794-.256h.508v.477h-.508a.582.582 0 00-.413.127.745.745 0 00-.159.508.689.689 0 00.159.539.506.506 0 00.381.127h.222l.73-1.746h.794l.889 2.124V.476h.794l.92 1.556V.476h.54v2.191z" fill="#0571c1"/>
  <path fill="#228fe0" d="M14.222 1.714h.73l-.349-.889-.381.889z"/>
  <path fill="#228fe0" d="M8.825 6.286v-1.81L8 5.365l.825.921z"/>
  <path fill="#0571c1" d="M5.429 4.698v.413h1.174v.445H5.429v.476H6.73l.603-.667-.571-.667H5.429z"/>
  <path d="M10.032 4.7h-.667v.57h.7c.191 0 .318-.095.318-.286a.321.321 0 00-.351-.284z" fill="#0571c1"/>
  <path d="M19.841 5.238V3.81h-1.333a1.042 1.042 0 00-.667.19v-.19h-1.46a1.008 1.008 0 00-.635.19v-.19h-2.571V4a1.227 1.227 0 00-.7-.19h-1.713V4a1.2 1.2 0 00-.73-.19h-1.9l-.444.476-.418-.476H4.413v3.111h2.793l.445-.477.412.477h1.715V6.19H10a1.935 1.935 0 00.73-.1v.857h1.429v-.82h.063c.1 0 .1 0 .1.1v.73h4.318a1.244 1.244 0 00.73-.19v.19h1.36a1.425 1.425 0 00.762-.158A1.081 1.081 0 0020 5.841a1.209 1.209 0 00-.159-.603zM10 5.746h-.635v.762H8.349l-.635-.73-.666.73h-2.1V4.254h2.131l.635.73.667-.73h1.682c.413 0 .889.127.889.73-.031.635-.476.762-.952.762zm3.175-.127a.724.724 0 01.095.413v.444h-.54V6.19a.708.708 0 00-.1-.444c-.064-.1-.191-.1-.381-.1h-.571v.825h-.54V4.222h1.206a1.282 1.282 0 01.635.095.562.562 0 01.286.508.633.633 0 01-.381.6.544.544 0 01.291.194zm2.19-.921h-1.238v.413h1.206v.445h-1.206V6h1.238v.476h-1.778V4.222h1.778zM16.7 6.476h-1.017V6H16.7a.271.271 0 00.223-.063.232.232 0 000-.318.27.27 0 00-.191-.063c-.508-.032-1.111 0-1.111-.7 0-.317.191-.667.762-.667h1.048v.54h-.985a.468.468 0 00-.222.032c-.063.032-.063.1-.063.159 0 .095.063.127.127.158a.4.4 0 00.19.032h.286a.807.807 0 01.6.191.658.658 0 01.159.476c.001.477-.285.699-.823.699zm2.731-.222a.928.928 0 01-.667.222h-1.018V6h1.016a.269.269 0 00.222-.063.23.23 0 000-.318.267.267 0 00-.19-.063c-.508-.032-1.111 0-1.111-.7 0-.317.19-.667.761-.667h1.048v.54h-.952a.47.47 0 00-.223.032c-.063.032-.063.1-.063.159 0 .095.032.127.127.158a.4.4 0 00.19.032h.286a.807.807 0 01.6.191.031.031 0 01.032.031.732.732 0 01.127.445.646.646 0 01-.187.477z" fill="#0571c1"/>
  <path d="M12.6 4.762a.614.614 0 00-.254-.032h-.635v.508h.635a.614.614 0 00.254-.032.245.245 0 00.1-.222.176.176 0 00-.1-.222z" fill="#228fe0"/>
  <path d="M10.381.952a.635.635 0 00-.254-.031h-.635v.508h.635a.616.616 0 00.254-.032.248.248 0 00.1-.222.178.178 0 00-.1-.223z" fill="#0571c1"/>
  <path fill="#0571c1" d="M14.222 1.714h.73l-.349-.889-.381.889z"/>
  <path fill="#0571c1" d="M8.825 6.286v-1.81L8 5.365l.825.921z"/>
  <path d="M10.032 4.7h-.667v.57h.7c.191 0 .318-.095.318-.286a.321.321 0 00-.351-.284z" fill="#0571c1"/>
  <path d="M12.6 4.762a.614.614 0 00-.254-.032h-.635v.508h.635a.614.614 0 00.254-.032.245.245 0 00.1-.222.176.176 0 00-.1-.222z" fill="#0571c1"/>
  <path fill="#228fe0" d="M17.111 3.016l.064.095h.031l-.095-.095z"/>
</svg>
