<svg xmlns="http://www.w3.org/2000/svg" viewBox="0 0 20 16.047">
  <path d="M3.73 8.01a4.377 4.377 0 002.807 4.082V3.924A4.386 4.386 0 003.73 8.01z" fill="#00499f"/>
  <path d="M17.45 2.244A8.665 8.665 0 0011.634 0H8.081A7.907 7.907 0 000 8.088a8.014 8.014 0 008.05 7.959h3.622a8.582 8.582 0 005.793-2.331A7.689 7.689 0 0020 8.088a7.854 7.854 0 00-2.55-5.844zM10 14.144a6.422 6.422 0 114.521-6.134A6.417 6.417 0 0110 14.144z" fill="#00499f"/>
  <path d="M10 4.068c-.108-.052-.218-.1-.331-.144v8.168c.113-.043.223-.092.331-.144a4.371 4.371 0 000-7.88z" fill="#00499f"/>
</svg>
