<svg xmlns="http://www.w3.org/2000/svg" viewBox="0 0 20 3.213">
  <path d="M10.591 0A1.658 1.658 0 0112.3 1.605a1.71 1.71 0 01-3.413 0A1.658 1.658 0 0110.591 0z" fill="#f47216"/>
  <path d="M7.911.021a1.678 1.678 0 01.77.185V.9A1.08 1.08 0 007.9.559 1.034 1.034 0 006.848 1.6a1.018 1.018 0 001.078 1.038 1.03 1.03 0 00.755-.33V3a1.818 1.818 0 01-.784.176A1.615 1.615 0 016.2 1.6 1.641 1.641 0 017.911.021z"/>
  <path d="M4.953.04A1.453 1.453 0 015.9.375l-.327.4a.662.662 0 00-.5-.244c-.27 0-.466.144-.466.334 0 .163.11.25.486.381.711.245.922.462.922.942a1.008 1.008 0 01-1.115.994 1.267 1.267 0 01-1.111-.575l.4-.366a.746.746 0 00.683.4.446.446 0 00.485-.426.358.358 0 00-.187-.313 2.7 2.7 0 00-.433-.172c-.587-.2-.789-.412-.789-.828a.92.92 0 011-.865z"/>
  <path d="M12.103.092h.683l.856 2.029.866-2.029h.678L13.801 3.19h-.337L12.103.092z"/>
  <path d="M2.928.097h.626v3.02h-.626V.097z"/>
  <path d="M15.469.097h1.775v.512h-1.149v.67h1.106v.511h-1.106v.816h1.149v.511h-1.775V.097z"/>
  <path d="M18.99 1.845a.816.816 0 00.731-.856c0-.566-.414-.892-1.135-.892h-.928v3.02h.625V1.9h.082l.866 1.213H20zm-.524-.358h-.183V.573h.193c.389 0 .6.154.6.447s-.211.467-.61.467z"/>
  <path d="M.918.1H0v3.02h.914a1.737 1.737 0 001.144-.349 1.48 1.48 0 00.582-1.162A1.555 1.555 0 00.918.1zm.731 2.269a1.236 1.236 0 01-.856.24H.625v-2h.168a1.208 1.208 0 01.856.244.988.988 0 01.351.752 1.008 1.008 0 01-.351.761z"/>
</svg>
