<svg xmlns="http://www.w3.org/2000/svg" viewBox="0 0 20 5.273">
  <path d="M5.86.148H3.633c0 2.621.418 4.285-1.4 4.285A5.076 5.076 0 010 3.855v1.094a11.814 11.814 0 002.656.324C6.481 5.273 5.86 3.41 5.86.148z" fill="#00499f"/>
  <path d="M12.832.324C10.356-.3 6.387-.259 6.387 2.64c0 3.012 4.226 2.875 6.445 2.313V3.848c-1.859.964-4.2.859-4.2-1.211s2.335-2.172 4.2-1.219z" fill="#00499f"/>
  <path d="M18.516 2.577v-.031a1.226 1.226 0 001.184-1.18c0-.742-.613-1.172-1.446-1.21 0 0 .247-.012-4.7-.012v4.98h4.793c.949 0 1.652-.5 1.652-1.3.001-.724-.644-1.188-1.483-1.247zm-2.91-.4V.918c1.609 0 1.5.007 1.5.007a.621.621 0 01.519.625.609.609 0 01-.519.618c-.048.015-.129.012-1.5.012zM17.278 4.3a12.1 12.1 0 01-1.672.02V2.948a12.417 12.417 0 011.672.02.667.667 0 01.527.664.657.657 0 01-.527.668z" fill="#00499f"/>
</svg>
