<svg xmlns="http://www.w3.org/2000/svg" viewBox="0 0 20 12.364">
  <path fill="#ff5f00" d="M7.026 1.322h5.95v9.719h-5.95z"/>
  <path d="M7.639 6.182A6.171 6.171 0 0110 1.324a6.181 6.181 0 100 9.719 6.173 6.173 0 01-2.361-4.861z" fill="#eb001b"/>
  <path d="M19.409 10.012v-.2h.091v-.04h-.2v.041h.081v.2zm.4 0v-.24h-.062l-.072.172-.075-.172h-.062v.24h.045V9.83l.067.157h.05l.067-.157v.182z" fill="#f79e1b"/>
  <path d="M20 6.182a6.18 6.18 0 01-10 4.859 6.181 6.181 0 000-9.719 6.181 6.181 0 0110 4.859z" fill="#f79e1b"/>
</svg>
