<svg xmlns="http://www.w3.org/2000/svg" viewBox="0 0 20 6.473">
  <path fill="#00579f" d="M8.667 6.379h-1.62L8.06.114h1.62L8.667 6.379z"/>
  <path d="M14.54.267A3.992 3.992 0 0013.087 0c-1.6 0-2.727.853-2.734 2.073-.013.9.807 1.4 1.42 1.7s.84.507.84.78c-.006.42-.507.613-.973.613a3.231 3.231 0 01-1.52-.333l-.213-.1-.227 1.406a4.937 4.937 0 001.807.334c1.7 0 2.806-.84 2.82-2.14.006-.713-.427-1.26-1.36-1.707-.567-.286-.914-.48-.914-.773.007-.267.293-.54.933-.54a2.767 2.767 0 011.207.24l.146.067.221-1.353z" fill="#00579f"/>
  <path d="M16.693 4.16c.134-.36.647-1.753.647-1.753s.133-.367.213-.6l.113.54s.307 1.5.374 1.813zm2-4.046H17.44a.8.8 0 00-.847.519l-2.407 5.746h1.7s.28-.773.34-.94h2.081c.046.22.193.94.193.94H20L18.693.114z" fill="#00579f"/>
  <path d="M5.693.114L4.107 4.386l-.174-.866A4.793 4.793 0 001.693.893l1.454 5.48H4.86L7.406.114z" fill="#00579f"/>
  <path d="M2.633.114H.027L0 .24a5.422 5.422 0 013.933 3.28L3.367.64a.671.671 0 00-.734-.526z" fill="#faa61a"/>
</svg>
